<?xml version="1.0" encoding="UTF-8"?>
<!DOCTYPE svg PUBLIC "-//W3C//DTD SVG 1.1//EN" "http://www.w3.org/Graphics/SVG/1.1/DTD/svg11.dtd">
<!-- Creator: CorelDRAW 2018 (64-Bit) -->
<svg xmlns="http://www.w3.org/2000/svg" xml:space="preserve" width="200mm" height="27mm" version="1.1" style="shape-rendering:geometricPrecision; text-rendering:geometricPrecision; image-rendering:optimizeQuality; fill-rule:evenodd; clip-rule:evenodd"
viewBox="0 0 20000 2700"
 xmlns:xlink="http://www.w3.org/1999/xlink">
 <defs>
  <style type="text/css">
   <![CDATA[
    .fil0 {fill:red}
   ]]>
  </style>
 </defs>
 <g id="Layer_x0020_1">
  <metadata id="CorelCorpID_0Corel-Layer"/>
  <g id="_2098000315232">
   <g>
    <path class="fil0" d="M17343.09 119.1c209.76,271.25 -76.54,606.5 -240.69,816.87 -70.64,90.49 -152.05,162.06 -234.66,239.07 -87.7,81.73 -219.86,177.77 -345.69,177.77 -88.6,0 -141.06,-99.05 -174.43,-162.14 156,-104.59 263.93,-278.82 365.39,-432.51 1.47,-2.2 3.55,-5.41 4.98,-7.5 17.48,-25.62 3.55,-7.37 15.85,-21.54 0,86.44 -24.91,141.56 -24.91,224.54 122.72,-65.03 238.48,-163.12 325.76,-272.58 72.82,-91.33 222.39,-245.52 222.39,-388.53 0,-81.51 -82.68,-124.75 -161.96,-124.75 -210.33,0 -592.06,199.42 -730.12,291.82 -98.8,66.12 -201.81,135.17 -285.64,225.42 -63.63,68.52 -180.22,211.84 -180.22,330.98 0,347.32 451.12,389.29 693.57,503.04 508.77,238.7 -4.67,399.27 -253.38,523.98 -139.89,70.13 -402.81,204.35 -402.81,394.99 -190.18,-15.83 -327.94,-308.33 -97.69,-459.52 138.83,-91.19 473.34,-166.21 636.03,-211.4 52.25,-14.53 86.39,-28.89 134.4,-40.07 -8.92,-107.1 -186.41,-140.52 -274.07,-162.19 -120.31,-29.76 -239.36,-56.33 -358.82,-89.77 -437.87,-122.56 -624.14,-437.48 -279.73,-811.5 104.13,-113.1 195.05,-162.33 324.58,-248.79 249.91,-166.78 1061.98,-631.85 1321.87,-295.69z"/>
    <path class="fil0" d="M19985.45 991.07l14.54 10.4c0.71,1.04 -64.97,226.61 -226.35,226.61 -109.87,0 -150.4,-30.31 -214.13,47.54 -65.01,79.46 -76.59,152.04 -172.05,152.04 -91.92,0 -317.46,-106 -144.77,-207.32 35.56,-20.85 61.81,-31.53 99.38,-50.17 102.66,-50.94 190.8,-237.42 244.88,-341.09 30.76,-58.96 72.65,-137.96 74.57,-224.7 -260.76,21.73 -729.52,800.56 -833.1,1074.36 -30.26,79.97 -95.73,293.07 -100.67,373.2 -7.14,115.92 31.07,124.15 -87.8,124.15 -219.63,0 -280.69,-92.17 -199.33,-261.95 -258.5,21.54 -882.81,159.68 -1139.12,231.59 -227.63,63.85 -520.38,185.22 -695.34,339.1 -33.94,29.87 -54.08,56.74 -80.97,93.56 -41.36,56.61 -27.6,68.66 -52.97,121.61 -261.94,-61.11 -367.92,-365.04 177.85,-582.83 168.7,-67.31 409.68,-137.84 585.1,-175.08 180.96,-38.39 1114.68,-215.05 1305.12,-215.05 23.76,-44.99 39.84,-91.92 62.1,-137.42l224.43 -411.44c-205.39,0 -212.59,63.98 -298.89,187.21 -112.76,161.01 -167.77,224.43 -324.02,224.43 -113.94,0 -238.15,-42.02 -249.17,-174.63 -98.96,113.99 -258.22,338.98 -416.35,217.3 -138.06,-106.21 3.7,-281.14 105.53,-441.21l198.7 -299.99c-109.11,29.17 -338.55,306.05 -409.4,400.86 -89.85,120.24 -264.03,352.04 -300.73,509.72 -259.84,0 -241.65,-179.36 -145.54,-357.78 151.36,-281.05 361.49,-573.6 506.85,-864.66 49.97,-100.07 95.33,-183.19 114.72,-297.62 12.51,-73.74 3.04,-46.18 -2.6,-114.01 469.12,109.43 187.53,309.74 -170.52,914.49 -81.17,137.09 -59.21,120.54 -134.78,214.32 -11.64,14.42 -11.61,17.98 -18.63,31.26 52.38,-4.37 17.34,19.46 90.14,-71.94 73.25,-92 498.1,-576.71 557.7,-576.71 81.39,0 124.97,41.69 174.41,74.84l-184.48 314.24c-18.53,28.95 -27.28,47.35 -47.08,77.6 -19.31,29.48 -31.85,44.92 -49.91,74.77 -43.79,72.39 -46.85,93.92 -67.35,182.04 86.03,-20.07 181.47,-125.9 233.85,-189.96 208.49,-254.96 355.93,-645.8 638.23,-645.8 163.83,0 177.73,134.03 113.78,264.47 -30.44,62.09 -1.66,56.19 -1.66,134.71 0,48.32 -35.69,85.94 -37.38,162.16 105.67,-70.86 193.36,-107.43 264.4,-221.76 55.9,-89.96 120.16,-237.88 146.72,-352.04 337.78,0 89.84,180.26 74.75,361.74 43.53,-29.18 80.59,-70.87 112.12,-112.27 32.88,-43.11 68.78,-75.4 109.05,-115.35 123.63,-122.68 135.58,-196.5 302.07,-196.5 66.29,0 115.45,64.71 121.4,114.5 13.9,116.68 -157.33,408.42 -183.68,521.68 28.34,-13.62 95.77,-22.81 178.09,-58.7l158.29 -78.52zm-1756.62 361.74c0,251.55 221.63,-24.17 266.83,-107.9 33.17,-61.42 7.25,-38.54 7.25,-141.57 0,-271.26 186.88,-113.65 186.88,-374.22 -110.12,0 -122.63,6.02 -197.74,101.38 -40.86,51.85 -71.81,93.41 -108.47,153.35 -55.73,91.13 -154.75,235.96 -154.75,368.96z"/>
    <path class="fil0" d="M18938.94 1826.83c2.54,-30.57 30.5,-104.84 44.77,-129.83 29.44,-51.59 56.83,-40.01 126.02,-48.46 193.14,-23.58 554.68,-86.81 733.56,-163.67 27.57,-11.84 117.23,-72.37 117.23,-19.8 0,278.67 -911.34,308.79 -1021.58,361.76z"/>
   </g>
   <g>
    <path class="fil0" d="M7241.44 2245.98l-8.37 -720.54c0,-50.97 8.37,-61.13 8.37,-108.93 236.72,0 368.18,129.84 368.18,368.66 0,146.44 22.44,307.53 -110.02,392.54 -47.68,30.6 -181.43,68.27 -258.16,68.27zm33.48 -1005.43l-33.48 0c0,-151.96 -8.37,-274.8 -8.37,-427.3 0,-124.93 8.37,-219.24 8.37,-343.52 109.38,0 202.38,17.31 268.08,108.62 137.59,191.21 106.35,662.2 -234.6,662.2zm-560.67 -888.11c0,128.83 108.79,62.78 108.79,184.33l0 1642.19c0,84.91 -108.79,64.36 -108.79,192.71 0,51.47 110.29,50.27 167.35,50.27 156.11,0 444.76,4.37 599.27,-20.01 174.59,-27.56 290.96,-80.87 407.04,-195.7 241.82,-239.22 172.89,-641.66 -119.24,-781.38l-209.25 -92.12c19.78,-27.02 4.14,-8.19 80.72,-36.48 343.92,-127.09 509.55,-647.78 125.01,-881.68 -162.32,-98.74 -266.93,-129.15 -481.88,-129.15l-518.81 0c-27.83,0 -50.21,31.93 -50.21,67.02z"/>
    <path class="fil0" d="M10128.41 1257.32l0 -787.59c168.97,0 343.1,48.5 343.1,259.75 0,249.38 24.84,527.84 -343.1,527.84zm-510.45 -904.88c0,44.89 108.79,145.77 108.79,167.57l0 1667.33c0,63.64 -47.88,53.63 -78,89.47 -27.04,32.16 -19.93,90.06 -30.79,136.76l619.24 0c0,-123.96 13.23,-111.59 -55.16,-162.63 -74.92,-55.92 -53.63,-189.39 -53.63,-323.33 0,-164.79 0,-329.56 0,-494.34 47.75,22.94 105.28,-0.06 142.38,58.52 78.21,123.44 246.81,873.21 303.77,910.74 56.96,37.53 362.12,11.04 424.13,11.04l0 -142.45c-50.45,-4.2 -85.89,-39.78 -104.84,-79.37 -104.58,-218.67 -109.51,-684.14 -394.23,-803.39 -65.47,-27.43 -53,-6.67 -61.59,-38.88 261.62,-5.83 545.57,-359.91 430.21,-690.48 -30.17,-86.46 -57.1,-121.1 -114.25,-178.86 -230.81,-233.36 -725.68,-194.72 -1060.72,-194.72 -51.22,0 -75.31,16.19 -75.31,67.02z"/>
    <path class="fil0" d="M14295.69 1257.32l0 -787.59c66.48,0 130.26,4.43 191.68,25.94 36.61,12.83 78.6,42.71 98.11,77.71 83.43,149.73 152.85,674.07 -289.79,683.94zm-510.45 -930.01c0,181.54 108.79,83.83 108.79,226.21l0 1608.68c0,94.07 -108.79,83.36 -108.79,184.33l0 67.04 619.23 0c0,-128.54 12.84,-113.51 -57.19,-160.58 -78.91,-53.02 -51.59,-211.72 -51.59,-325.38 0,-167.58 0,-335.15 0,-502.72 105.83,24.68 134.99,50.35 180.67,171.01 34.62,91.48 55.63,178.45 83.48,276.68 26.93,94.96 57.62,175.7 83.77,268.02 26.9,94.92 66.58,184.25 87.22,272.97l435.14 0 0 -6.43 0 -10.88 0 -1.95c-0.11,-34.49 -1.21,-83.37 -10.34,-104.46 -21.23,-49.13 -74.77,-5.56 -126.71,-174.75 -58.16,-189.57 -129,-535.94 -245.37,-642.47 -12.81,-11.73 -12.93,-13.29 -24.39,-25.83l-26.39 -23.86c-55.88,-40.79 -71.45,-33.49 -103,-47.67 -25.87,-11.62 -16.72,3.22 -24.47,-25.79 103.18,-8.6 246.07,-104.58 307.71,-161.1 163.72,-150.11 194.06,-476.1 62.63,-636.98 -53.8,-65.85 -104.15,-118.69 -181.22,-162.08 -21.02,-11.84 -35.52,-14.87 -58,-25.72 -25,-12.06 -29.34,-15.93 -59.18,-24.53 -251.54,-72.52 -542.38,-53.65 -816.68,-53.65 -33.93,0 -75.32,9.02 -75.32,41.89z"/>
    <path class="fil0" d="M11576.09 2245.98l0 -829.47c298.73,0 384.92,163.76 384.92,452.44 0,243.15 -120.43,377.03 -384.92,377.03zm50.2 -1005.43l-50.2 0 0 -770.82c168.31,0 274.66,45.3 325.5,210.33 69.33,225.08 9.36,560.49 -275.3,560.49zm-560.66 -913.24c0,118.81 4.93,75.14 69.47,139.9 31.75,31.89 39.32,68.44 39.32,128.2l0 1550.03c0,62.44 -108.79,153.31 -108.79,184.33l0 83.8c37.85,0.83 33.26,8.37 75.31,8.37 298.61,0 706.3,18.36 937.46,-100.31 338.15,-173.6 400.4,-596.9 144.04,-823.37 -145.7,-128.73 -306.39,-143.85 -328.37,-173.91 85.38,-19.92 217.73,-93.59 287.92,-164.16 129.5,-130.22 138.85,-216.2 138.85,-413.96 0,-167.08 -126.34,-278.32 -230.81,-347.03 -117.2,-77.07 -280.99,-113.78 -472.11,-113.78l-493.71 0c-28.21,0 -58.58,14.8 -58.58,41.89z"/>
    <path class="fil0" d="M12496.57 327.31c0,100.46 2.66,55.57 58.78,133.83 13.13,18.3 50,73.13 50,100.77l0 1575.16c0,153.75 -108.78,80.36 -108.78,226.22l0 50.28 1204.99 0 0 -527.86c-164.08,0 -158.96,-15.43 -193.59,91.04 -20.86,64.11 -65.83,193.54 -120.38,231.36 -78.84,54.67 -269.32,37.87 -380.58,37.87l0 -846.23c119.58,0 181.53,-14.83 231.31,145.44 22.56,72.62 -9.49,64.03 120.15,64.03 28.19,0 58.58,-14.81 58.58,-41.89l0 -494.34c0,-73.66 -70.33,-71.67 -121.59,-63.09 -60.27,10.09 -29.31,-4.94 -77.8,114.8 -43.33,107.04 -98.38,99.1 -210.65,99.1l0 -754.07c172.24,0 357.76,-32.07 418.72,100.24 62.27,135.17 -8.03,193.02 150.31,193.02 28.86,0 32.41,-6.2 58.58,-8.38 18.88,-81.16 8.37,-366.57 8.37,-469.19l-1071.11 0c-33.92,0 -75.31,9.02 -75.31,41.89z"/>
    <path class="fil0" d="M8739.31 1047.86l75.38 326.7c21.44,81.07 68.88,250.11 75.25,326.82l-326.35 0 80.38 -330.07c15.26,-60.76 25.14,-109.35 40.13,-169.27l27.74 -123.06c12.57,-37.84 -12.66,-9.86 27.47,-31.12zm-150.62 -653.54c0,61.03 6.32,86.16 8.97,142.56 3.49,74.15 3.24,43.37 -17.34,125.56 -20.96,83.74 -42.08,160.88 -60.65,249.28l-274.12 1116.38c-8.61,32.85 -21.86,96.13 -34.7,124.45 -38.63,85.16 -124.24,105.29 -124.24,227.5 0,42.76 49.62,34.13 91.91,33.65l376.69 -0.13c15.95,-68.55 18.8,-127.36 -55.79,-161.98 -82.92,-38.51 -49.28,-109 -18.84,-256.28 31.99,-154.69 -7.82,-117.98 426.1,-117.98 22.6,0 23.07,4 41.84,8.38 10.47,44.98 18.77,87.69 30.12,137.4 48.6,212.53 47.18,163.45 -24.01,237.37 -15.57,16.17 -23.67,29.05 -37.92,45.82 -43.81,51.56 -31.65,107.27 6.71,107.27l627.59 0c0,-144.36 6.89,-112.57 -78.4,-164.49 -73.88,-44.98 -108.21,-290.01 -127.48,-375.07 -77.82,-343.76 -180.03,-728.75 -266.08,-1074.14l-107.19 -395.41c-11.33,-40.69 -30.04,-84.24 -40.09,-127.42l-254.25 88.93c-34.47,12.01 -50.85,25.19 -88.83,28.35z"/>
   </g>
   <g>
    <path class="fil0" d="M718.67 625.29c64.41,-37.23 -25.25,-5.13 -27.99,2.46 -24.65,67.23 27.79,-2.35 27.99,-2.46z"/>
    <path class="fil0" d="M1652.04 386.84c116.84,0 457.22,55.13 515.72,36.62 143.41,-45.39 119.33,-132.91 517.92,-132.91 117.28,0 219.82,245.93 -249.43,328.06 -298.97,52.3 -205.45,-54.45 -405.73,147.3l-498.53 607.69c121.93,0 166.49,-0.41 192.28,96.4 -79.63,109.12 -109.85,51.15 -255.72,81.07 -133.1,27.31 -345.26,375.6 -447.55,490.48 -119.16,133.8 -172.08,214.32 -319.87,329.61 -116.62,90.95 -223.16,197.01 -407.04,217.01 -193.63,21.07 -332.67,-110.35 -284.48,-305.36 42.58,-172.37 310.79,-587.2 418.32,-479.48 96.32,96.46 -266.11,223 -266.11,629.27 133.04,31.06 204.85,-25.65 294.79,-113.77 122.42,-119.9 582.42,-617.95 618.41,-752.43 -49.25,23.75 -309.85,42.04 -401.14,55.5 -197.9,29.23 -226.81,54.68 -344,-7.39 15.31,-184.72 109.34,-138.12 398.27,-179.16 153.76,-21.84 358.95,-37.68 515.16,-37.68 22.56,-84.57 241.63,-328.55 308.87,-412.71 115.02,-143.89 309.59,-267.28 340.15,-381.31 -436.4,0 -726.34,0.26 -1047.81,130.07 -325.44,131.37 -345.32,199.17 -499.67,390.74 -67.13,83.27 -83.64,80.06 -183.26,56.82 0,-163.31 33.64,-187.53 100.6,-284.56 80.26,-116.4 421.21,-582.1 524.49,-582.1 219.44,0 -29.91,221.66 -48.07,288.92 203.53,-48 418.55,-216.7 913.43,-216.7z"/>
    <line class="fil0" x1="3839.61" y1="2264.36" x2="3839.61" y2= "2264.36" />
    <path class="fil0" d="M1868.51 2264.13c205.79,-4.62 469.45,-258.86 600.75,-361.02 520.41,-405.06 585.99,-548.83 967.3,-956.9 85.4,-91.38 141.16,-164.97 228.33,-252.75 35.79,-36.08 86.4,-97.52 126.53,-115.66 92.74,-41.86 221.73,53.42 -2.4,312.16l-402.56 463.38c-77.23,96.51 -107.28,91.18 -171.83,212.83 68.38,-16.02 40.39,-24.07 96.03,-24.07 138.13,0 387.31,325.48 -384.48,505.64 36.64,156.98 49.15,134.23 120.19,240.46 65.41,-31.55 100.4,-23.47 176.6,-63.65 134.99,-71.15 573.62,-420.56 699.47,-527.08l52.47 -43.76c98.17,-83.27 99.11,-82.3 152.92,-183.6 -99.45,0 -215.05,-5.47 -312.47,2.64 -114.88,9.54 -124.56,41.95 -192.31,-50.87 53.21,-79.86 26.99,-58.23 138.72,-77.92 61.78,-10.83 111.74,-18.34 197.51,-18.88 340.27,-2.18 317.53,-12.84 416.76,-136.18l251.06 -280.86c88.92,-79.18 91.2,-44.3 101.88,-39.86 179.83,74.62 -27.96,214.29 -144.24,433.23 111.83,0 185.75,-13.7 264.44,24.07 -24.94,228.54 -313.48,-16.96 -495.16,226.47 -131.53,176.24 -447.41,529.15 -490.48,712.29 149.04,-3.61 223.16,-71.84 316.13,-140.76l493.59 -396.32c45.67,-38.43 197.85,-185.06 247.92,-185.06 437.26,0 -259.83,521.12 -312.39,746.1 60.73,-29.32 103.09,-27.71 177.15,-63.13 133.1,-63.68 536.14,-390.33 669.79,-508.68 33.56,-29.72 374.22,-407.87 402.93,-53.85 119.85,-80.98 102.8,-144.54 312.59,-144.54 15.91,68.31 24.05,41.18 24.05,96.4 0,140.53 -232.56,390.01 -318.45,475.52 -575.36,572.76 -742.71,256.77 -571.16,-66.25 -64.72,17.37 -239.44,168.99 -308.45,220.45 -234.41,174.81 -580.96,247.97 -580.96,44.19 0,-159.96 65.58,-150.53 96.17,-264.64 -362.8,244.73 -427.23,451.94 -817.31,361.01 -33.88,-145.77 -43.73,-170.22 48.07,-361.01 -89.4,24.01 -227.76,160.56 -308.42,220.45 -249.41,185.21 -607.29,302.93 -701.15,-100.09 -57.27,38.6 -103.48,83.99 -147.41,140.96 -35.76,46.34 -67.87,123.77 -140.93,123.77 -257.92,0 4.49,-264.33 23.94,-336.95 -155.78,105.03 -358.58,336.95 -600.84,336.95 -345.41,0 -140.33,-286.48 -120.19,-361.13 -133.16,89.95 -439.1,361.13 -624.98,361.13 -31.62,0 -111.37,-88.55 25.99,-141.02 232.24,-88.69 198.23,-71.19 462.23,-284.85 100.68,-81.44 179.57,-145.8 275.54,-229.57 29.02,-25.3 414.18,-376.74 414.18,-138.92 0,224.06 -377.05,442.11 -432.66,649.73zm3581.59 -24.07c106.03,-8.86 190.29,-92.02 248.5,-161.74 77.86,-93.25 -17.11,-150.13 87.82,-271.49 -44.47,-62.39 2.26,-19.89 -101.73,90.66l-234.59 342.57z"/>
    <path class="fil0" d="M5017.24 1325.6c0,-73.39 109.48,-138.33 163.09,-173.78 41.33,-27.34 155.32,-115.17 197.57,-115.17 88.65,0 98.11,81.96 68.17,137.5 -34.33,63.73 -70.89,71.01 -134.9,108.72 -52.87,31.09 -293.93,201.31 -293.93,42.73z"/>
    <path class="fil0" d="M2325 1229.42c26.59,-114.79 102.71,-216.84 240.49,-216.84 279.83,0 -1.34,492 -240.49,216.84z"/>
    <path class="fil0" d="M2950.2 1903.11c118.11,-27.65 253.03,-104.34 312.27,-192.31 -124.44,10.37 -257.86,111.41 -312.27,192.31z"/>
   </g>
  </g>
 </g>
</svg>
