<?xml version="1.0" encoding="UTF-8"?>
<!DOCTYPE svg PUBLIC "-//W3C//DTD SVG 1.1//EN" "http://www.w3.org/Graphics/SVG/1.1/DTD/svg11.dtd">
<!-- Creator: CorelDRAW 2018 (64-Bit) -->
<svg xmlns="http://www.w3.org/2000/svg" xml:space="preserve" width="85mm" height="107mm" version="1.1" style="shape-rendering:geometricPrecision; text-rendering:geometricPrecision; image-rendering:optimizeQuality; fill-rule:evenodd; clip-rule:evenodd"
viewBox="0 0 8500 10700"
 xmlns:xlink="http://www.w3.org/1999/xlink">
 <defs>
  <style type="text/css">
   <![CDATA[
    .fil0 {fill:white}
   ]]>
  </style>
 </defs>
 <g id="Layer_x0020_1">
  <metadata id="CorelCorpID_0Corel-Layer"/>
  <g id="_2046448998224">
   <g>
    <path class="fil0" d="M5133.66 9356.2c1.71,-20.58 20.6,-70.59 30.24,-87.41 19.89,-34.74 38.39,-26.94 85.13,-32.63 130.47,-15.88 374.7,-58.45 495.54,-110.2 18.62,-7.97 79.19,-48.73 79.19,-13.33 0,187.63 -615.63,207.91 -690.1,243.57zm-856.03 1343.8l-30.97 0 -4.37 -0.16c-227.42,-11.48 -576.1,-132.14 -779.95,-255.23l-151.36 -109.31c-20.46,-16.14 -26.02,-25.34 -45.64,-38.44 1.59,70.67 37.29,102.08 42.08,159.57 -108.06,-8.97 -257.75,-103.34 -330.41,-174.18 -23.43,-22.83 -29.73,-26.32 -54.31,-46.59 -25,-20.61 -27.56,-30.76 -46.96,-53.9 -89.65,-106.94 -131.21,-141.97 -202.34,-285.21 -18.23,-36.72 -107.11,-241.94 -111.91,-274.67 -0.41,-2.89 -1.9,-3.64 -3.08,-5.32 0,112.66 4.17,184.53 19.18,283.23 10.2,67.12 55.25,178.45 56.57,237.49 -59,-39.43 -113.7,-149.53 -148.9,-212.56 -90.27,-161.67 -172.19,-316.19 -228.91,-493.83 -30.41,-95.21 -51.4,-185.07 -51.4,-309.86l-16.83 0c0,74.32 -17.23,132.16 -16.86,218.35l0.03 201.59c-29.17,-21.33 -40.63,-57.21 -56.59,-94.71 -108.5,-255.04 -204.3,-501.37 -204.3,-795.55 0,-87.9 23.69,-209.11 -15.08,-270.51 -216.74,-343.15 -372.06,-756.51 -372.06,-1190.87 0,-225.98 56.57,-381.96 58.92,-487.14l-17.02 25.02c-33.84,59.64 -52.06,125.29 -68.95,191.54 -21.99,86.24 -25.2,201.63 -65.52,228.58 -4.38,-9.11 -20.99,-99.91 -22.95,-111.47 -7.3,-43.22 -10.71,-68.09 -10.71,-115.3 0,-299.81 29.06,-410.51 114.84,-674.87 8.46,-26.07 10.59,-53.43 19.81,-72.62l-472.55 -7.21c-39.79,-2.33 -34.7,10.23 -167.49,-0.74l-351.8 0.78c-139.21,15.7 -127.46,21.18 -127.46,-93.61l0 -151.18 1413.85 0c-12.06,25.11 -17.01,63.7 -29.85,96.19 -34.39,87.05 -94.11,163.23 -96.38,264.96 54.29,-36.28 111.26,-115.68 168.24,-159.65 18.51,-14.28 25.49,-22.08 47.05,-37.04 53.4,-37.06 86.57,-64.56 155.01,-80.47 -28.79,123.3 -311.39,434.05 -311.39,814.67 0,101.69 24.06,294.25 92.57,344.36 0,-58.39 -16.83,-99.33 -16.83,-167.98 0,-203.97 81.09,-359.98 190.97,-489.71 20.94,-24.73 38.29,-52.3 59.29,-75.21 35.08,-38.26 119.19,-79.84 145.28,-115.37 -70.65,16.43 -107.92,32.21 -159.99,67.09 -36.3,24.3 -95.82,64.72 -142.98,75.68 79.56,-118.56 328.54,-277.15 530.2,-277.15 434.55,0 456.54,283.87 353.47,352.74 -16.24,-69.58 -31.79,-120.27 -103.99,-148.17 -67.16,-25.95 -143.94,-18.23 -215.47,-2.67 -292.96,63.74 -276.12,436.46 -103.48,606.51 22.84,22.5 44.08,39.75 61.06,65.05 -90.89,0 -169.76,-31.58 -222.13,-80.68 -1.26,-1.18 -3.09,-2.86 -4.33,-4.07 -36.74,-35.73 -67.93,-80.18 -110.17,-108.42 1.43,63.95 43.91,139.25 74.28,177.84 130.63,166 414.03,129.33 581.13,73.11 122.32,-41.15 226.15,-102.46 330.91,-173.69 86.25,-58.66 173.68,-124.12 238.67,-206.95 12.92,-16.45 37.64,-26.1 20.55,-38.29l-387.13 209.97c20.61,-88.28 157.59,-194.34 225.28,-253.9 16.53,-14.54 27.23,-20 43.96,-31.72 16.85,-11.8 24.45,-19.53 43.6,-32.07 19.77,-12.93 32.32,-17.46 53.87,-30.23 267.75,-158.66 542.12,-103.83 810.41,4.68 119.98,48.52 57.24,67.77 211.73,-0.87 170.64,-75.82 275.05,-101.02 471.05,-101.02 246.53,0 419.2,137.1 570.18,287.66 42.59,42.47 105.65,96.34 119.92,157.47 -90.32,-24.06 -250.14,-176.16 -395.54,-209.97 81.96,122.16 220.09,219.31 343.31,295.7 182.81,113.33 329.85,166.24 557.18,166.24 183.21,0 339.49,-126.37 353.46,-293.96 -26.56,17.76 -48.14,41.98 -67.31,67.2 -60.86,80.08 -155.41,125.97 -269.31,125.97 30.76,-45.85 81.98,-63.97 129.07,-148.34 83.03,-148.77 81.26,-338.35 -42.56,-458.73 -81.41,-79.15 -282.58,-112.87 -386.41,-36.56 -56.5,41.53 -38.42,99.53 -70.41,122.91 -10.42,-38.97 -19,-14.42 -30.41,-62.07 -46.15,-192.58 166.74,-290.67 291.31,-290.67 241.03,0 376.39,54.49 524.43,173.72 6.06,4.88 144.9,121.75 86.59,106.99 -18.65,-4.73 -132.07,-104.7 -231.98,-129.86 -15.16,-3.82 -23.7,-14.06 -34,0.32 153.25,102.42 277.23,238.8 339.9,416.68 20.74,58.84 38.82,129.79 38.82,204.83 0,104.56 -18.59,155.32 -25.25,235.17 4.55,-5.22 9.4,-10.38 15.24,-18.4l25.83 -49.8c46.45,-115.26 59.92,-203.52 59.92,-334.94 0,-140.72 -101.86,-406.75 -168.65,-520.39 -37.45,-63.71 -128.1,-197.98 -142.73,-260.7 126.89,29.5 224.96,125.84 310.07,219.69l60.22 57.47c-1.09,-48.89 -41.7,-146.46 -59.03,-184.65 -20.67,-45.53 -57.38,-113.65 -58.78,-176.5l1405.44 0c0,239.24 27.25,253.25 -58.19,252.7 -182.73,-1.19 -378.2,-19.22 -564.63,-9.18 -38.1,2.06 -45.99,8.67 -92.24,8.73 -70.19,0.1 -140.47,-0.29 -210.68,-0.29l-193.57 -8.39c14.92,63.9 29.16,113.29 49.43,169.03 77.78,213.98 113.67,464.8 80.62,699.85 -6.99,49.73 -1.53,93.1 -54.31,105.37 -1.59,-71.48 -27.23,-178.65 -47.22,-238.43 -12.91,-38.59 -23.64,-73.04 -35.86,-106.99 -10.61,-29.5 -22.04,-67.07 -43.16,-91.32 7.96,17.77 38.57,205.27 41.36,235.89 36.03,395 0.93,626.9 -124.52,974.52 -55.33,153.29 -133.66,294.29 -211.46,435.68 -36.65,66.61 -33.59,88.46 -33.59,159.64 0,252.53 -19.59,406.73 -82.32,631.74 -22.44,80.5 -116.92,360.11 -178.57,401.31 15.9,-68.14 9.49,-353.24 -25.25,-403.14 -8.27,35.4 -11.87,78.12 -17.2,117.21 -14.99,109.57 -56.28,206.91 -91.22,303.71 -76.43,211.78 -183.1,374.68 -300.47,557.12 -15.9,24.73 -56.85,67.56 -33.42,1.86 60.59,-169.9 80.43,-281.93 80.43,-501.17 -29.45,33.82 -41.48,102.97 -55.71,145.98 -39.92,120.64 -166.62,341.07 -266.47,431.16 -21,18.95 -32.24,23.81 -54.5,46.39 -80.52,81.75 -261.07,213.68 -380.75,216.34 13.51,-57.86 48.89,-87.4 50.5,-159.57 -34.12,22.79 -65.28,51.08 -99.77,76.8 -32.92,24.55 -68.51,54.74 -102.46,74.12 -161.28,92.12 -531.88,244.75 -746.38,252.22zm1562.97 -1906.52l9.82 7c0.48,0.7 -43.89,152.58 -152.9,152.58 -74.22,0 -101.6,-20.41 -144.65,32.01 -43.92,53.5 -51.74,102.37 -116.23,102.37 -62.09,0 -214.45,-71.37 -97.79,-139.59 24.02,-14.04 41.75,-21.23 67.13,-33.78 69.35,-34.3 128.89,-159.86 165.42,-229.66 20.78,-39.7 49.08,-92.89 50.38,-151.29 -176.15,14.63 -492.81,539.02 -562.78,723.37 -20.44,53.85 -64.67,197.33 -68.01,251.28 -4.82,78.05 20.99,83.59 -59.31,83.59 -148.36,0 -189.61,-62.06 -134.65,-176.37 -174.62,14.5 -596.36,107.51 -769.5,155.93 -153.77,42.99 -351.53,124.71 -469.72,228.32 -22.93,20.11 -36.53,38.2 -54.7,62.99 -27.94,38.12 -18.64,46.23 -35.78,81.88 -176.95,-41.14 -248.54,-245.78 120.14,-392.42 113.96,-45.32 276.75,-92.81 395.25,-117.88 122.24,-25.85 752.99,-144.8 881.64,-144.8 16.05,-30.29 26.91,-61.89 41.95,-92.52l151.61 -277.03c-138.75,0 -143.61,43.08 -201.91,126.05 -76.17,108.41 -113.33,151.11 -218.88,151.11 -76.97,0 -160.88,-28.29 -168.32,-117.58 -66.85,76.75 -174.44,228.24 -281.26,146.31 -93.26,-71.51 2.5,-189.29 71.29,-297.07l134.23 -201.98c-73.71,19.64 -228.7,206.06 -276.56,269.9 -60.7,80.96 -178.36,237.03 -203.15,343.2 -175.53,0 -163.24,-120.77 -98.32,-240.9 102.25,-189.23 244.2,-386.21 342.39,-582.18 33.76,-67.38 64.4,-123.34 77.5,-200.39 8.45,-49.65 2.05,-31.09 -1.76,-76.76 316.9,73.68 126.68,208.55 -115.19,615.73 -54.83,92.3 -40,81.16 -91.05,144.3 -7.86,9.71 -7.84,12.11 -12.58,21.05 35.38,-2.94 11.71,13.1 60.89,-48.44 49.48,-61.94 336.48,-388.3 376.74,-388.3 54.98,0 84.42,28.07 117.82,50.39l-124.62 211.58c-12.52,19.49 -18.43,31.88 -31.81,52.25 -13.04,19.85 -21.51,30.24 -33.71,50.34 -29.58,48.74 -31.65,63.24 -45.5,122.57 58.12,-13.51 122.59,-84.77 157.97,-127.9 140.84,-171.67 240.44,-434.82 431.14,-434.82 110.67,0 120.06,90.24 76.86,178.07 -20.56,41.8 -1.12,37.83 -1.12,90.7 0,32.53 -24.11,57.86 -25.25,109.18 71.38,-47.71 130.62,-72.33 178.61,-149.31 37.76,-60.57 81.17,-160.17 99.11,-237.03 228.18,0 60.69,121.37 50.5,243.56 29.4,-19.65 54.44,-47.72 75.74,-75.59 22.21,-29.03 46.46,-50.77 73.66,-77.67 83.52,-82.6 91.59,-132.3 204.06,-132.3 44.78,0 77.99,43.57 82.01,77.09 9.39,78.56 -106.28,274.99 -124.08,351.25 19.14,-9.17 64.69,-15.36 120.3,-39.52l106.93 -52.87zm-2019.81 -1738.54c-12.42,46.43 -173.65,185.53 -221.45,224.13 -157.36,127.06 -332.3,224.56 -526.42,289.33 -22.34,7.45 -43.22,13.31 -71.46,21.07 -32.81,9.01 -49,7.3 -64.33,28.19 220.26,0 683.77,-115.62 892.2,-218.24 106.46,-52.41 373.99,-165.74 403.84,-277.29 27.18,7.25 10.28,1.55 32.06,18.4l91.53 76.64c279.63,225.26 632.74,313.18 983.74,378.85 70.12,13.12 125.23,21.64 205.53,21.64 -34.87,-30.26 -194.71,-77.78 -240.45,-95.98 -227.68,-90.56 -443.43,-243.68 -601.12,-424.75 11.47,-16.02 12.3,3.52 59.98,40.92 21.79,17.09 37.54,30.01 61.43,47.88 313.81,234.75 660.23,389.93 1090.47,389.93 -61.25,83.43 -537.91,162.59 -614.36,125.98 14.29,61.25 79.7,90.23 109.4,142.79 15.18,26.86 13.43,42.58 25.26,67.18 -25.39,16.97 -49.18,32.3 -77.15,49 -165.97,99.07 -810.07,294.04 -873.83,109.9 -44.37,-128.15 166.92,-188.54 251.49,-218.65 39.67,-14.13 146.88,-52.52 169.29,-83.02l-566.44 31.57 -502.7 -14.45c-90.53,-0.9 -157.34,-17.12 -252.16,-17.12 32,47.67 276.58,124.18 345.19,159.44 133.45,68.59 86.57,183.09 16.7,201.7 21.87,29.79 77.13,35.84 108.59,76.4 141.7,182.63 -51.7,408.36 -162.59,550 -47.72,60.93 -102.71,109.12 -158.52,160.97 -59.24,55.03 -148.52,119.69 -233.52,119.69 -59.85,0 -95.29,-66.69 -117.83,-109.17 105.38,-70.42 178.29,-187.73 246.83,-291.21 0.99,-1.48 2.4,-3.64 3.36,-5.05 11.81,-17.25 2.4,-4.96 10.71,-14.5 0,58.2 -16.83,95.31 -16.83,151.18 82.9,-43.78 161.1,-109.83 220.06,-183.53 49.19,-61.49 150.23,-165.31 150.23,-261.6 0,-54.88 -55.85,-83.99 -109.41,-83.99 -142.08,0 -399.95,134.27 -493.21,196.48 -66.74,44.52 -136.33,91.01 -192.96,151.78 -42.98,46.13 -121.74,142.63 -121.74,222.85 0,233.85 304.74,262.11 468.52,338.7 343.69,160.72 -3.15,268.83 -171.16,352.8 -94.5,47.22 -272.11,137.59 -272.11,265.95 -128.47,-10.66 -221.53,-207.6 -65.99,-309.4 93.78,-61.4 319.75,-111.91 429.65,-142.34 35.3,-9.78 58.36,-19.45 90.79,-26.98 -6.02,-72.11 -125.92,-94.61 -185.14,-109.2 -81.27,-20.04 -161.69,-37.93 -242.39,-60.44 -295.79,-82.52 -421.62,-294.56 -188.96,-546.39 70.34,-76.15 131.76,-109.3 219.26,-167.51 131.37,-87.39 352.77,-250.3 523.46,-250.3 -29.94,-40.79 -252.28,-86.09 -316.25,-104.31 -119.02,-33.92 -192.95,-74.6 -289.68,-139.25 3.44,-41.29 20.3,-83.98 40.57,-110.68l68.83 -82.48 -174.54 -10.59c-101.36,-13.1 -221.59,-31.85 -317.32,-69.67l-116.41 -51.81c-15.41,-9.92 -6.01,-3.35 -14.5,-10.72 371.9,0 704.31,-120.57 1006.58,-322.46 67.12,-44.83 133.41,-82.56 190.78,-137.16 20.29,-19.31 40.29,-49.16 56.6,-61.1zm841.59 -8.4l0 0zm-2028.22 3099.14c0.83,0.83 2.5,-3.68 2.51,-2.51l0 0.01c-0.17,0.16 -3.35,1.66 -2.51,2.5zm328.21 -3241.92l2.52 2.51c-0.17,-0.16 -1.68,-3.34 -2.52,-2.51zm2558.42 8.41l2.51 -2.51c-0.17,0.17 -3.35,1.67 -2.51,2.51z"/>
    <path class="fil0" d="M6168.81 3090.74c12.8,9.97 5.67,13.62 0.72,25.91 -22.65,56.24 -86.19,133.67 -34.38,133.67 92.65,0 114.39,-64.75 168.31,-100.79 0,142.22 -74.65,213.55 -84.15,327.56 427.64,0 828,-8.41 1253.96,-8.41 72.3,0 537.46,27.14 587.35,-1.75 19.38,-11.22 18.3,-9.78 24.36,-34.49 9.98,-40.77 -5.77,-158.21 -5.77,-215.72l-908.91 0c4.16,-49.93 25.25,-89.38 25.25,-134.38 0,-68.92 -101.76,-127.34 -134.66,-176.38 37.92,3.16 132.76,31.03 164.2,46.11 19.95,9.57 48.07,26.82 63.26,37.66 24.28,17.31 34.3,34.32 58.68,50.62 -6.54,-78.47 -63.36,-169.35 -100.82,-218.54 -22.59,-29.66 -47.39,-56.57 -79.27,-80.46 -24.71,-18.51 -78.09,-54.7 -106.05,-62.15l0 -16.8c71.38,0 141.22,-27.85 210.4,-33.59 -25.29,-34.45 -92.55,-34.27 -126.24,-50.4 7.43,-31.79 22.15,-45.43 39.76,-69.49 133.01,-181.61 170.64,-377.89 170.64,-619.2 -6.1,8.76 -0.42,-2.85 -9.03,16.19 -4.97,10.98 -4.51,9.66 -9.16,24.44 -27.47,87.13 -59.92,233.27 -133.29,286.92 0,-224.25 19.17,-253.61 -53.57,-467.27 -39.09,-114.8 -120.03,-280.67 -207.33,-339.01 30.67,131.35 109.41,258.44 109.41,470.33l-8.42 100.79c-24.11,-34.63 -55.82,-167.33 -114.37,-255.41 -97.6,-146.8 -182.99,-305.11 -308.36,-431.35l-578.66 -531.16c-83.72,-63.82 -339.02,-267 -454.55,-293.86 19.24,28.69 40.23,50.71 62.59,80.31 58.84,77.85 153.82,181.73 156.22,289.24 -22.36,-14.95 -59.29,-48.92 -82.26,-69.08l-475.86 -306.19c-273.81,-151.76 -567.18,-275.13 -863.17,-381.6 -53.3,-19.17 -182.88,-73.22 -245.05,-74.6 11.22,9.72 406.14,204.11 528.62,287.12 108.9,73.82 286.22,205.05 382.5,298.59l172.04 172.64c87.78,104.88 174.83,114.97 293.49,185.85 145.36,86.81 265.31,178.94 366.66,314.39 41.05,54.87 76.9,106.05 108.24,169.13 130.76,263.13 244,535.77 244,848.33l-8.42 0c0,-166.14 -168.58,-476.45 -255.36,-635.42 -124.36,-227.82 -215.19,-289.1 -329.01,-444.35 -1.68,-2.29 -57.53,-78.38 -55.38,-42.24 0.09,1.5 0.08,3.06 0.25,3.53l109.56 202.77c72.79,164.44 113.7,357.42 140.29,540.29 13.09,90.03 27.77,224.27 27.77,316.63l-8.42 0c0,-145.43 -92.72,-361.05 -147.88,-499.12 -83.17,-208.16 -194.73,-412.41 -318.36,-597.74 -33.73,-50.57 -69.85,-104.94 -112.19,-148.4 -197.25,-202.54 -198.07,-204.29 -419.43,-370.9 -179.32,-134.97 -471.38,-289.96 -688.4,-362.85 -96.26,-32.33 -196.47,-73.04 -298,-97.34 -25.53,-6.12 -83.57,-21.03 -111.28,-23.33 19.75,29.43 43.05,34.26 75.8,50.33 31.27,15.35 54.31,30 86.78,47.78 54.17,29.67 111.8,74.73 140.39,128.65 -283.25,0 -528.11,22.47 -750.3,175.09 -33.31,22.87 -46.92,32.41 -66.03,68.47 138.66,-32.24 326.46,-67.18 471.28,-67.18 212.83,0 437.41,66.97 594.02,129.47 110.06,43.92 405.73,195.82 457.96,273.67 -121.65,-10.11 -254.39,-109.19 -496.53,-109.19 19.53,26.6 214.69,99.49 265.75,129.52 45.75,26.9 81.5,51.84 121.42,80.41 75.98,54.38 142.68,121.76 203.98,191.18l94.08 107.67c44.96,58.11 101.52,99.64 143.04,159.61 14.25,20.6 32.97,41.39 38.56,62.3 -20.69,-13.83 -25.59,-22.58 -44.11,-39.97 -15.8,-14.85 -29.7,-24.17 -47.15,-36.94l-424.96 -272.99c-193.15,-104.27 -389.83,-198.48 -594.58,-280.1 -378.37,-150.84 -796.48,-189.43 -1211.21,-150.32 -137.25,12.95 -653.45,103.27 -724.52,209.21 115.58,0 198.55,50.39 302.97,50.39 77.78,0 273.88,-75.59 605.94,-75.59 455.93,0 779.96,156.55 1147.38,341.52 127.03,63.94 273.64,170.77 385.55,261.94 69.11,56.31 224.36,184.96 276.48,253.21 54.31,71.15 126.39,131.83 190.16,238.56l112.81 214.98c-8.52,11.88 -5.41,11.03 -15.59,-1.25l-163.63 -181.05c-47.97,-57.27 -131.62,-132.93 -189.91,-180.03 -188.61,-152.4 -222.07,-183.31 -416.87,-314.66 -71.53,-48.24 -155.96,-91.41 -232.32,-129.3 -208.01,-103.23 -425.76,-202.91 -653.48,-263.3 -53.11,-14.09 -103.08,-18.71 -154.45,-30.65 36.44,54.3 107.59,76.99 163.29,114.21 85.74,57.31 171.49,112.87 251.03,177.81l155.76 130.11c17.43,16.93 20.1,16.6 37.12,30.15 66.16,52.68 121.88,119.94 181.79,179.72 134.51,134.24 269.82,283.96 372.01,443.43l-4.96 21.74 -437.26 -344.71c-55.8,-38.6 -109.22,-75.36 -166.88,-110.62l-537.94 -277.83c-387.27,-171.85 -847.83,-298.5 -1271.51,-368.82 -216.12,-35.87 -325.33,-34.52 -488.08,-58.84 -92.13,-13.77 -169.56,0.07 -257.33,-20.34 17.72,36.87 -5.08,28.28 36.58,47.47 169.5,78.06 139.58,79.47 335.88,118.34 142.14,28.15 290.97,68.7 424.71,122.08l498.93 224.37c155.39,77.15 300.03,180.19 441.13,282.06l158.37 119.11c20.11,17.99 26.29,29.22 48.45,44.03l-7.01 9.8c-2.82,0.01 -5.48,-6.51 -6.19,-5.02l-215.2 -112.79c-40.88,-16.51 -76.28,-33.81 -116.54,-51.68 -122.07,-54.19 -243.17,-107.33 -371.48,-150 -84.86,-28.22 -175.98,-57.34 -251.4,-93.45 8.35,35.78 3.65,23.93 27.48,39.77l118.98 82.84c123.06,84.53 333.9,258.53 448.93,375.05l243.72 227.11c75.15,62.69 262.64,288.06 305.44,316.67l-18.04 1.22c-9.09,-6.23 -6.71,-4.59 -15.2,-10.04l-207.38 -145.78c-159.29,-110.16 -324.36,-210.05 -494.14,-304.74 -172.07,-95.96 -339.01,-194.34 -516.38,-282.55 -201.51,-100.21 -393.39,-213.21 -594.64,-313.64 -25.8,-12.86 -43.86,-17.25 -70.42,-30.5 -39.26,-19.59 -92.37,-60.87 -137.26,-64.6 12.71,35.05 72.57,56.7 101.02,75.56l425.8 297.37c39.99,27.47 68.65,49.65 106.76,78.22l829.11 617.15c39.39,26.75 66.77,51.47 105.04,79.96 37.15,27.66 74.08,49.8 98.61,86.36 -176.54,-14.66 -696.25,-218.65 -841.21,-302.73 -499.81,-289.86 -608.67,-337.72 -991.31,-724.06 -25.24,-25.48 -37.79,-32.39 -63.09,-54.62 -40.61,-35.69 -78.66,-78.43 -117.88,-117.51 -45.32,-45.15 -64.71,-71.36 -103.58,-123.4 -26.46,-35.43 -79.59,-99.85 -113.13,-122.26 0,237.4 169.18,687 326.07,842.01 29.63,29.27 43.16,40.72 75.28,67.65 182.31,152.86 298.96,243.09 521.6,352.93l80.83 45.31c16.65,11.4 4.89,2.34 14.54,10.7 -140.12,0 -379.61,-76.54 -514.45,-124.91 -32.62,-11.7 -57.83,-23.9 -90.51,-35.65 -31.11,-11.19 -58.32,-22.44 -92.42,-33.74 -23.75,-7.88 -81.4,-22.54 -102.13,-32.47 33.21,142.25 416.9,347.16 454.46,403.14 -143.92,-3.2 -415.76,-195.39 -524.44,-282.91 -146.71,-118.14 -349.9,-407.87 -384.47,-430.99l15.25 186.36c34.26,274.2 153.83,509.31 348.69,693.46 38,35.91 207.16,149.62 258.83,161.63 -20.59,30.68 -23.02,16.04 -42.08,41.99 71.37,0 113.13,8.41 176.73,8.41l0 16.79c-58.75,0 -84.41,8.12 -134.32,8.74 -79.55,0.98 -281.87,10.04 -339.24,1.98 -93.53,-13.13 -322.4,-2.32 -426.93,-2.32l0 251.96c53.39,0 70.26,8.41 126.24,8.41l1270.79 0c77.88,0 176.71,-21.26 218.8,-83.99 -41.56,-9.68 -122.85,-53.88 -143.06,-84 137.53,0 247.27,8.41 387.13,8.41 -19.26,-28.71 -70.93,-53.81 -101.06,-75.52 -37.11,-26.75 -65.37,-57.92 -99.68,-85.3 -48.68,-38.89 -49.94,-37.86 -83.66,-92.88 -27.83,-45.38 -66.09,-58.65 -77.48,-107.45 198.45,104.8 254.24,162.1 499.99,231.71 225.72,63.95 626.06,127.16 893.54,67.15 186.44,-41.82 148.02,-58.18 326.85,16.75 262.48,109.99 483.8,-4.62 731.82,-85.66 218.73,-71.47 134.77,-78.11 347.32,24.96 251.45,121.92 374.81,-34.1 626.03,-36.23l308.92 -19.27c106.43,-17.14 189.13,-87.89 256.69,-163.76 46.11,-51.76 152.54,-237.83 174.67,-254.02 0,103.98 -0.96,212.38 -17.9,309.69 -4.95,28.43 -15.04,61.43 -15.75,93.45l111.32 -40.07c10.88,-6.11 8.45,-4.71 14.91,-10.32zm-2041.41 -3090.74l13.19 0c14.1,14.07 -9.18,4.29 -9.37,4.37 -13.86,5.51 -10.53,-0.77 -3.82,-4.37zm-691.93 2719.39l5.21 -7.99 24.85 28.39 -5.21 8 -24.85 -28.4zm915.48 -40.15c9.31,-40.06 35.96,-75.67 84.2,-75.67 97.97,0 -0.47,171.69 -84.2,75.67zm942.58 33.56c0,-25.61 38.33,-48.27 57.1,-60.64 14.47,-9.54 54.38,-40.19 69.17,-40.19 31.04,0 34.35,28.6 23.87,47.98 -12.02,22.24 -24.82,24.78 -47.23,37.94 -18.51,10.85 -102.91,70.25 -102.91,14.91zm-1102.4 327.51c72.05,-1.61 164.36,-90.33 210.33,-125.98 182.2,-141.35 205.16,-191.52 338.66,-333.92 29.9,-31.89 49.42,-57.57 79.94,-88.2 12.53,-12.59 30.25,-34.03 44.3,-40.36 32.47,-14.61 77.63,18.64 -0.84,108.93l-140.94 161.7c-27.04,33.68 -37.56,31.82 -60.16,74.27 23.94,-5.59 14.14,-8.4 33.62,-8.4 48.36,0 135.6,113.58 -134.61,176.45 12.83,54.78 17.21,46.84 42.08,83.91 22.9,-11.01 35.15,-8.19 61.83,-22.21 47.26,-24.83 200.83,-146.76 244.89,-183.93l18.37 -15.27c34.37,-29.06 34.7,-28.72 53.54,-64.07 -34.82,0 -75.29,-1.91 -109.4,0.92 -40.22,3.33 -43.61,14.64 -67.33,-17.75 18.63,-27.87 9.45,-20.32 48.57,-27.19 21.63,-3.78 39.12,-6.4 69.15,-6.59 119.13,-0.76 111.17,-4.48 145.91,-47.52l87.9 -98.01c31.13,-27.63 31.93,-15.46 35.67,-13.91 62.96,26.04 -9.79,74.78 -50.5,151.18 39.15,0 65.03,-4.78 92.58,8.4 -8.73,79.75 -109.75,-5.92 -173.36,79.03 -46.05,61.5 -156.64,184.65 -171.72,248.56 52.18,-1.26 78.13,-25.07 110.68,-49.12l172.81 -138.3c15.99,-13.41 69.27,-64.58 86.8,-64.58 153.09,0 -90.97,181.85 -109.37,260.36 21.26,-10.23 36.09,-9.67 62.02,-22.03 46.6,-22.22 187.71,-136.21 234.5,-177.51 11.75,-10.37 131.02,-142.33 141.07,-18.79 41.96,-28.26 35.99,-50.44 109.44,-50.44 5.57,23.84 8.42,14.37 8.42,33.64 0,49.04 -81.42,136.1 -111.49,165.94 -201.44,199.87 -260.03,89.6 -199.97,-23.12 -22.66,6.06 -83.83,58.97 -107.99,76.93 -82.07,61 -203.4,86.53 -203.4,15.42 0,-55.82 22.96,-52.53 33.67,-92.35 -127.02,85.4 -149.58,157.71 -286.15,125.98 -11.86,-50.87 -15.31,-59.4 16.83,-125.98 -31.3,8.38 -79.74,56.03 -107.98,76.93 -87.32,64.63 -212.62,105.71 -245.48,-34.93 -20.05,13.47 -36.23,29.31 -51.61,49.19 -12.52,16.17 -23.76,43.19 -49.34,43.19 -90.3,0 1.57,-92.24 8.38,-117.58 -54.54,36.65 -125.54,117.58 -210.36,117.58 -120.93,0 -49.13,-99.97 -42.08,-126.02 -46.62,31.39 -153.73,126.02 -218.81,126.02 -11.07,0 -38.99,-30.9 9.1,-49.21 81.31,-30.95 69.4,-24.84 161.83,-99.4 35.25,-28.42 62.87,-50.88 96.47,-80.11 10.16,-8.83 145.01,-131.47 145.01,-48.48 0,78.19 -132.01,154.28 -151.48,226.73zm-39.61 -81.42c0,-1.17 -1.65,-3.32 -2.47,-2.49 -0.83,0.83 2.32,2.33 2.48,2.49l-0.01 0zm1427.51 -117.19c-0.64,0.24 -7.43,2.73 -7.71,5.52 -2.7,27.44 10.94,4.43 12.74,-6.13 5.04,-29.52 -3.81,0.14 -5.03,0.61zm-697.8 198.69l0 0zm-765.89 -655.18c40.91,0 160.08,19.24 180.56,12.78 50.21,-15.84 41.78,-46.38 181.33,-46.38 41.06,0 76.96,85.82 -87.33,114.48 -104.67,18.25 -71.93,-19 -142.05,51.4l-174.54 212.06c42.69,0 58.29,-0.14 67.32,33.64 -27.88,38.08 -38.46,17.85 -89.53,28.29 -46.6,9.53 -120.88,131.07 -156.69,171.16 -41.72,46.69 -60.25,74.79 -111.99,115.02 -40.83,31.74 -78.13,68.75 -142.51,75.73 -67.79,7.35 -116.47,-38.51 -99.6,-106.56 14.91,-60.15 108.81,-204.91 146.46,-167.32 33.72,33.66 -93.17,77.82 -93.17,219.59 46.58,10.84 71.72,-8.95 103.21,-39.7 42.86,-41.84 203.91,-215.64 216.51,-262.57 -17.24,8.29 -108.48,14.67 -140.44,19.37 -69.29,10.2 -79.41,19.08 -120.44,-2.58 5.36,-64.46 38.28,-48.2 139.44,-62.52 53.83,-7.62 125.67,-13.15 180.36,-13.15 7.9,-29.51 84.6,-114.65 108.14,-144.02 40.27,-50.21 108.39,-93.27 119.09,-133.06 -152.79,0 -254.3,0.09 -366.85,45.39 -113.94,45.84 -120.9,69.5 -174.94,136.35 -23.5,29.06 -29.28,27.94 -64.16,19.83 0,-56.99 11.78,-65.44 35.22,-99.3 28.1,-40.62 147.47,-203.13 183.63,-203.13 76.83,0 -10.47,77.35 -16.83,100.82 71.26,-16.75 146.54,-75.62 319.8,-75.62zm-326.78 83.21c22.55,-12.99 -8.84,-1.79 -9.8,0.86 -8.63,23.46 9.73,-0.82 9.8,-0.86zm2447.58 -116.77l2.51 2.51c-0.17,-0.17 -3.35,-1.67 -2.51,-2.51zm-1060.4 -764.28c-29.01,-28.96 28.79,28.72 0,0z"/>
    <path class="fil0" d="M530.2 5568.36l-8.42 -722.28c0,-51.09 8.42,-61.27 8.42,-109.19 238.07,0 370.29,130.15 370.29,369.55 0,146.79 22.56,308.27 -110.65,393.49 -47.96,30.67 -182.47,68.43 -259.64,68.43zm33.67 -1007.85l-33.67 0c0,-152.33 -8.42,-275.47 -8.42,-428.33 0,-125.24 8.42,-219.77 8.42,-344.35 110.01,0 203.54,17.35 269.61,108.88 138.38,191.67 106.96,663.8 -235.94,663.8zm-563.87 -890.26c0,129.15 109.41,62.94 109.41,184.78l0 1646.15c0,85.11 -109.41,64.51 -109.41,193.17 0,51.6 110.92,50.39 168.31,50.39 157,0 447.3,4.39 602.69,-20.05 175.59,-27.63 292.62,-81.07 409.36,-196.18 243.21,-239.79 173.88,-643.2 -119.92,-783.26l-210.44 -92.34c19.89,-27.09 4.16,-8.21 81.18,-36.57 345.88,-127.4 512.46,-649.34 125.72,-883.81 -163.24,-98.97 -268.45,-129.46 -484.63,-129.46l-521.77 0c-27.99,0 -50.5,32.01 -50.5,67.18z"/>
    <path class="fil0" d="M3433.66 4577.32l0 -789.49c169.94,0 345.06,48.61 345.06,260.37 0,249.99 24.99,529.12 -345.06,529.12zm-513.36 -907.07c0,45 109.41,146.13 109.41,167.98l0 1671.35c0,63.79 -48.15,53.76 -78.45,89.68 -27.19,32.24 -20.04,90.28 -30.96,137.09l622.77 0c0,-124.25 13.31,-111.85 -55.47,-163.02 -75.35,-56.05 -53.94,-189.84 -53.94,-324.11 0,-165.18 0,-330.35 0,-495.53 48.03,23 105.88,-0.06 143.2,58.66 78.65,123.74 248.22,875.32 305.5,912.94 57.29,37.62 364.19,11.06 426.55,11.06l0 -142.79c-50.73,-4.21 -86.38,-39.88 -105.43,-79.56 -105.18,-219.2 -110.14,-685.79 -396.49,-805.33 -65.84,-27.49 -53.3,-6.68 -61.94,-38.97 263.12,-5.85 548.69,-360.78 432.67,-692.15 -30.34,-86.66 -57.43,-121.39 -114.9,-179.29 -232.13,-233.92 -729.83,-195.19 -1066.78,-195.19 -51.51,0 -75.74,16.23 -75.74,67.18z"/>
    <path class="fil0" d="M7624.75 4577.32l0 -789.49c66.86,0 131,4.44 192.77,26 36.82,12.86 79.05,42.81 98.67,77.9 83.91,150.09 153.73,675.69 -291.44,685.59zm-513.37 -932.26c0,181.98 109.41,84.04 109.41,226.76l0 1612.56c0,94.3 -109.41,83.56 -109.41,184.77l0 67.2 622.77 0c0,-128.85 12.91,-113.78 -57.52,-160.96 -79.36,-53.15 -51.88,-212.23 -51.88,-326.17 0,-167.98 0,-335.96 0,-503.93 106.43,24.74 135.76,50.47 181.7,171.42 34.82,91.7 55.95,178.88 83.96,277.35 27.08,95.19 57.95,176.12 84.25,268.67 27.05,95.15 66.96,184.69 87.71,273.62l437.63 0 0 -6.44 0 -10.91 0 -1.95c-0.11,-34.58 -1.22,-83.57 -10.4,-104.71 -21.35,-49.25 -75.2,-5.58 -127.43,-175.18 -58.49,-190.02 -129.74,-537.23 -246.77,-644.01 -12.89,-11.76 -13.01,-13.33 -24.53,-25.9l-26.54 -23.91c-56.2,-40.89 -71.86,-33.57 -103.59,-47.79 -26.02,-11.65 -16.82,3.23 -24.61,-25.85 103.77,-8.62 247.47,-104.83 309.47,-161.49 164.65,-150.47 195.16,-477.25 62.98,-638.52 -54.1,-66 -104.74,-118.97 -182.25,-162.47 -21.14,-11.86 -35.72,-14.9 -58.33,-25.78 -25.15,-12.09 -29.51,-15.97 -59.52,-24.59 -252.98,-72.69 -545.48,-53.78 -821.35,-53.78 -34.12,0 -75.75,9.04 -75.75,41.99z"/>
    <path class="fil0" d="M4889.61 5568.36l0 -831.47c300.44,0 387.12,164.16 387.12,453.53 0,243.74 -121.12,377.94 -387.12,377.94zm50.49 -1007.85l-50.49 0 0 -772.68c169.27,0 276.23,45.41 327.36,210.83 69.73,225.63 9.42,561.85 -276.87,561.85zm-563.86 -915.45c0,119.1 4.96,75.33 69.86,140.24 31.94,31.97 39.55,68.61 39.55,128.51l0 1553.77c0,62.59 -109.41,153.68 -109.41,184.77l0 84c38.06,0.84 33.45,8.39 75.74,8.39 300.31,0 710.33,18.41 942.81,-100.55 340.08,-174.02 402.69,-598.34 144.87,-825.35 -146.54,-129.04 -308.14,-144.2 -330.25,-174.33 85.87,-19.97 218.97,-93.82 289.56,-164.56 130.24,-130.53 139.65,-216.72 139.65,-414.96 0,-167.48 -127.06,-278.99 -232.13,-347.86 -117.87,-77.26 -282.6,-114.06 -474.81,-114.06l-496.53 0c-28.37,0 -58.91,14.84 -58.91,41.99z"/>
    <path class="fil0" d="M5815.35 3645.06c0,100.71 2.68,55.71 59.12,134.16 13.2,18.34 50.28,73.3 50.28,101.01l0 1578.96c0,154.12 -109.4,80.55 -109.4,226.76l0 50.4 1211.88 0 0 -529.13c-165.02,0 -159.87,-15.47 -194.7,91.26 -20.98,64.27 -66.21,194.01 -121.07,231.92 -79.29,54.8 -270.86,37.96 -382.75,37.96l0 -848.27c120.26,0 182.56,-14.87 232.63,145.79 22.69,72.8 -9.55,64.19 120.84,64.19 28.35,0 58.91,-14.85 58.91,-42l0 -495.53c0,-73.84 -70.73,-71.84 -122.28,-63.24 -60.62,10.11 -29.48,-4.95 -78.25,115.08 -43.58,107.29 -98.94,99.34 -211.85,99.34l0 -755.89c173.22,0 359.8,-32.15 421.11,100.48 62.63,135.5 -8.08,193.48 151.17,193.48 29.02,0 32.59,-6.21 58.91,-8.4 18.99,-81.35 8.42,-367.45 8.42,-470.32l-1077.23 0c-34.11,0 -75.74,9.04 -75.74,41.99z"/>
    <path class="fil0" d="M2036.63 4367.35l75.81 327.49c21.56,81.26 69.27,250.71 75.68,327.61l-328.22 0 80.84 -330.87c15.35,-60.91 25.29,-109.61 40.36,-169.68l27.9 -123.35c12.64,-37.93 -12.73,-9.89 27.63,-31.2zm-151.48 -655.11c0,61.17 6.35,86.36 9.02,142.9 3.51,74.33 3.26,43.47 -17.44,125.86 -21.08,83.94 -42.32,161.27 -61,249.88l-275.68 1119.07c-8.66,32.93 -21.99,96.37 -34.9,124.75 -38.85,85.37 -124.95,105.55 -124.95,228.05 0,42.87 49.9,34.22 92.43,33.73l378.85 -0.13c16.04,-68.71 18.9,-127.66 -56.11,-162.37 -83.4,-38.6 -49.56,-109.26 -18.95,-256.89 32.17,-155.07 -7.86,-118.27 428.53,-118.27 22.73,0 23.21,4.01 42.08,8.4 10.53,45.09 18.88,87.9 30.3,137.73 48.87,213.05 47.44,163.85 -24.15,237.95 -15.66,16.2 -23.81,29.12 -38.14,45.93 -44.06,51.68 -31.83,107.52 6.75,107.52l631.18 0c0,-144.7 6.92,-112.84 -78.85,-164.88 -74.3,-45.09 -108.83,-290.71 -128.21,-375.98 -78.27,-344.59 -181.06,-730.5 -267.6,-1076.73l-107.8 -396.36c-11.4,-40.79 -30.21,-84.44 -40.32,-127.73l-255.7 89.15c-34.67,12.04 -51.15,25.25 -89.34,28.42z"/>
    <path class="fil0" d="M4653.96 9037.04c0,169.37 149.72,-16.27 180.25,-72.65 22.41,-41.35 4.9,-25.95 4.9,-95.32 0,-182.64 126.24,-76.52 126.24,-251.96 -74.39,0 -82.84,4.05 -133.58,68.26 -27.6,34.91 -48.51,62.89 -73.27,103.25 -37.65,61.36 -104.54,158.87 -104.54,248.42z"/>
    <path class="fil0" d="M5445.08 3031.91c37.12,-3.09 66.62,-32.11 87,-56.44 27.26,-32.54 -5.99,-52.39 30.75,-94.74 -15.57,-21.77 0.79,-6.94 -35.62,31.64l-82.13 119.54z"/>
    <path class="fil0" d="M4569.84 2914.33c41.35,-9.65 88.59,-36.41 109.33,-67.11 -43.57,3.62 -90.28,38.88 -109.33,67.11z"/>
   </g>
  </g>
 </g>
</svg>
